<svg width="175" height="32" fill="none" xmlns="http://www.w3.org/2000/svg"><rect opacity=".1" width="175" height="32" rx="16" fill="#36B37E"/><path d="M22.725 15.053l-.376 1.941h1.846v1.149h-2.071L21.577 21H20.36l.547-2.857h-1.695L18.665 21h-1.19l.52-2.857h-1.71v-1.149h1.936l.39-1.941h-1.806v-1.149h2.003l.547-2.884h1.23l-.546 2.884h1.723l.546-2.884h1.19l-.547 2.884h1.723v1.149h-1.949zm-3.301 1.941h1.709l.39-1.941h-1.71l-.39 1.941zm12.181-1.34h1.135c.761 0 1.313-.141 1.654-.424.342-.282.513-.701.513-1.257 0-.565-.185-.971-.554-1.217-.369-.246-.925-.37-1.668-.37h-1.08v3.268zm0 1.354V21h-1.634v-9.994h2.824c1.29 0 2.244.241 2.864.724.62.483.93 1.213.93 2.188 0 1.244-.648 2.13-1.942 2.66L37.471 21h-1.86l-2.392-3.992h-1.614zM44.58 21h-5.654v-9.994h5.654v1.38h-4.02v2.721h3.767v1.368H40.56v3.137h4.02V21zm8.367 0l-.998-2.775h-3.821L47.15 21h-1.722l3.739-10.035h1.777L54.684 21h-1.737zm-1.429-4.184l-.936-2.72a20.685 20.685 0 01-.533-1.723c-.123.56-.303 1.174-.54 1.839l-.903 2.604h2.912zm12.613-.909c0 1.65-.458 2.912-1.374 3.787-.916.87-2.236 1.306-3.958 1.306h-2.796v-9.994h3.09c1.59 0 2.827.428 3.711 1.285.885.857 1.327 2.062 1.327 3.616zm-1.723.055c0-2.393-1.119-3.589-3.357-3.589h-1.415v7.253H58.8c2.406 0 3.609-1.221 3.609-3.664zm6.7-.397l2.364-4.56h1.778l-3.33 6.119V21h-1.64v-3.821l-3.315-6.173h1.777l2.365 4.56zM81.657 21h-1.634v-8.593h-2.94v-1.401h7.513v1.401h-2.939V21zm13.35-5.01c0 1.626-.407 2.89-1.223 3.793-.811.902-1.962 1.354-3.452 1.354-1.509 0-2.668-.447-3.48-1.34-.806-.898-1.21-2.172-1.21-3.821 0-1.65.406-2.917 1.217-3.801.816-.884 1.978-1.326 3.486-1.326 1.486 0 2.635.448 3.446 1.346.81.898 1.216 2.163 1.216 3.794zm-7.628 0c0 1.23.248 2.164.745 2.802.496.633 1.233.95 2.208.95.97 0 1.702-.314 2.194-.943.497-.63.745-1.566.745-2.81 0-1.226-.246-2.155-.738-2.789-.488-.633-1.217-.95-2.188-.95-.98 0-1.72.317-2.221.95-.497.634-.745 1.563-.745 2.79zm13.412-4.984h2.967c1.376 0 2.369.2 2.98.601.615.402.923 1.035.923 1.9 0 .584-.151 1.07-.451 1.457-.301.387-.734.631-1.299.731v.069c.702.132 1.217.394 1.545.786.332.387.499.913.499 1.579 0 .898-.315 1.602-.944 2.112-.624.506-1.494.759-2.611.759h-3.609v-9.994zm1.634 4.129h1.572c.683 0 1.182-.107 1.497-.322.314-.218.472-.587.472-1.107 0-.47-.171-.809-.513-1.018-.337-.21-.875-.315-1.613-.315h-1.415v2.762zm0 1.326v3.165h1.736c.683 0 1.198-.13 1.545-.39.351-.264.526-.679.526-1.244 0-.52-.178-.904-.533-1.155-.356-.25-.896-.376-1.62-.376h-1.654zM115.687 21h-5.653v-9.994h5.653v1.38h-4.019v2.721h3.766v1.368h-3.766v3.137h4.019V21zm10.056-8.736c-.939 0-1.677.332-2.215.998-.538.665-.807 1.583-.807 2.755 0 1.226.258 2.153.773 2.782.519.629 1.269.943 2.249.943.424 0 .834-.04 1.23-.123.397-.086.809-.196 1.238-.328v1.401c-.784.297-1.673.445-2.666.445-1.463 0-2.587-.442-3.37-1.326-.784-.89-1.176-2.158-1.176-3.808 0-1.04.189-1.948.567-2.728a4.095 4.095 0 011.654-1.79c.721-.415 1.566-.623 2.537-.623 1.02 0 1.964.214 2.83.643l-.588 1.36a8.332 8.332 0 00-1.073-.417 3.76 3.76 0 00-1.183-.184zm13.494 3.725c0 1.627-.408 2.892-1.224 3.794-.811.902-1.961 1.354-3.452 1.354-1.508 0-2.668-.447-3.479-1.34-.807-.898-1.21-2.172-1.21-3.821 0-1.65.405-2.917 1.217-3.801.815-.884 1.977-1.326 3.486-1.326 1.486 0 2.634.448 3.445 1.346.811.898 1.217 2.163 1.217 3.794zm-7.629 0c0 1.23.249 2.165.745 2.803.497.633 1.233.95 2.208.95.971 0 1.702-.314 2.195-.943.496-.63.745-1.566.745-2.81 0-1.226-.246-2.155-.739-2.789-.487-.633-1.216-.95-2.187-.95-.98 0-1.72.317-2.222.95-.496.634-.745 1.563-.745 2.79zm18.649 0c0 1.627-.408 2.892-1.224 3.794-.811.902-1.962 1.354-3.452 1.354-1.509 0-2.668-.447-3.48-1.34-.806-.898-1.21-2.172-1.21-3.821 0-1.65.406-2.917 1.217-3.801.816-.884 1.978-1.326 3.486-1.326 1.486 0 2.635.448 3.446 1.346.811.898 1.217 2.163 1.217 3.794zm-7.629 0c0 1.23.248 2.165.745 2.803.497.633 1.233.95 2.208.95.971 0 1.702-.314 2.194-.943.497-.63.745-1.566.745-2.81 0-1.226-.246-2.155-.738-2.789-.488-.633-1.217-.95-2.188-.95-.979 0-1.72.317-2.221.95-.497.634-.745 1.563-.745 2.79zM152.403 21v-9.994h1.634v8.593h4.231V21h-5.865z" fill="#36B37E"/></svg>