<svg width="196" height="24" fill="none" xmlns="http://www.w3.org/2000/svg"><rect opacity=".1" width="196" height="24" rx="12" fill="#36B37E"/><path d="M33.544 11.053l-.376 1.941h1.845v1.149h-2.071L32.395 17h-1.217l.547-2.857H30.03L29.483 17h-1.19l.52-2.857h-1.709v-1.149h1.935l.39-1.941h-1.805V9.904h2.003l.547-2.884h1.23l-.547 2.884h1.723l.547-2.884h1.19l-.548 2.884h1.723v1.149h-1.948zm-3.302 1.941h1.709l.39-1.941h-1.71l-.39 1.941zm12.181-1.34h1.135c.761 0 1.313-.141 1.654-.424.342-.282.513-.701.513-1.257 0-.565-.184-.971-.553-1.217-.37-.246-.926-.37-1.668-.37h-1.08v3.268zm0 1.354V17H40.79V7.006h2.823c1.29 0 2.244.241 2.864.724.62.484.93 1.213.93 2.188 0 1.244-.647 2.13-1.941 2.66L48.288 17h-1.86l-2.392-3.992h-1.614zM55.398 17h-5.653V7.006h5.653v1.38h-4.02v2.721h3.767v1.368H51.38v3.137h4.02V17zm8.367 0l-.998-2.775h-3.821L57.968 17h-1.722l3.739-10.035h1.777L65.502 17h-1.737zm-1.428-4.184l-.937-2.72a20.663 20.663 0 01-.533-1.723c-.123.56-.303 1.174-.54 1.839l-.902 2.604h2.912zm12.612-.909c0 1.65-.458 2.912-1.374 3.787-.916.87-2.236 1.306-3.958 1.306H66.82V7.006h3.09c1.59 0 2.828.428 3.712 1.285.884.857 1.326 2.062 1.326 3.616zm-1.723.055c0-2.393-1.119-3.589-3.356-3.589h-1.415v7.253h1.162c2.406 0 3.61-1.221 3.61-3.664zm6.7-.397l2.365-4.56h1.777l-3.33 6.119V17h-1.64v-3.821l-3.315-6.173h1.777l2.365 4.56zM92.475 17h-1.634V8.407h-2.939V7.006h7.513v1.401h-2.94V17zm13.351-5.01c0 1.626-.408 2.89-1.224 3.793-.811.903-1.962 1.354-3.452 1.354-1.508 0-2.668-.447-3.48-1.34-.806-.898-1.21-2.172-1.21-3.821 0-1.65.406-2.917 1.217-3.801.816-.884 1.978-1.326 3.487-1.326 1.485 0 2.634.449 3.445 1.346.811.898 1.217 2.163 1.217 3.794zm-7.63 0c0 1.23.25 2.164.746 2.802.497.633 1.233.95 2.208.95.971 0 1.702-.314 2.194-.943.497-.63.745-1.566.745-2.81 0-1.226-.246-2.155-.738-2.789-.487-.633-1.217-.95-2.187-.95-.98 0-1.72.317-2.222.95-.497.634-.745 1.563-.745 2.79zm13.413-4.984h2.967c1.376 0 2.37.2 2.98.601.616.401.923 1.035.923 1.9 0 .584-.15 1.07-.451 1.457-.301.387-.734.631-1.299.731v.069c.702.132 1.217.394 1.545.786.333.387.499.913.499 1.579 0 .898-.314 1.602-.943 2.112-.625.506-1.495.759-2.612.759h-3.609V7.006zm1.634 4.129h1.572c.684 0 1.183-.107 1.497-.322.315-.218.472-.587.472-1.107 0-.47-.171-.809-.513-1.018-.337-.21-.875-.315-1.613-.315h-1.415v2.762zm0 1.326v3.165h1.736c.684 0 1.199-.13 1.545-.39.351-.264.526-.679.526-1.244 0-.52-.177-.904-.533-1.155-.355-.25-.895-.376-1.62-.376h-1.654zM126.506 17h-5.654V7.006h5.654v1.38h-4.02v2.721h3.767v1.368h-3.767v3.137h4.02V17zm10.055-8.736c-.939 0-1.677.332-2.215.998-.537.665-.806 1.583-.806 2.755 0 1.226.257 2.153.772 2.782.52.629 1.269.943 2.249.943.424 0 .834-.04 1.231-.123.396-.086.809-.196 1.237-.328v1.401c-.784.297-1.673.445-2.666.445-1.463 0-2.586-.442-3.37-1.327-.784-.888-1.176-2.157-1.176-3.807 0-1.04.189-1.948.567-2.728a4.097 4.097 0 011.655-1.79c.72-.415 1.565-.623 2.536-.623 1.021 0 1.964.215 2.83.643l-.588 1.36a8.33 8.33 0 00-1.073-.417 3.76 3.76 0 00-1.183-.184zm13.494 3.725c0 1.627-.408 2.892-1.223 3.794-.812.903-1.962 1.354-3.452 1.354-1.509 0-2.669-.447-3.48-1.34-.807-.898-1.21-2.172-1.21-3.821 0-1.65.406-2.917 1.217-3.801.816-.884 1.978-1.326 3.486-1.326 1.486 0 2.634.449 3.446 1.346.811.898 1.216 2.163 1.216 3.794zm-7.629 0c0 1.23.249 2.165.746 2.803.496.633 1.232.95 2.208.95.97 0 1.702-.314 2.194-.943.497-.63.745-1.566.745-2.81 0-1.226-.246-2.155-.738-2.789-.488-.633-1.217-.95-2.188-.95-.98 0-1.72.317-2.221.95-.497.634-.746 1.563-.746 2.79zm18.649 0c0 1.627-.408 2.892-1.224 3.794-.811.903-1.962 1.354-3.452 1.354-1.508 0-2.668-.447-3.479-1.34-.807-.898-1.21-2.172-1.21-3.821 0-1.65.405-2.917 1.216-3.801.816-.884 1.978-1.326 3.487-1.326 1.485 0 2.634.449 3.445 1.346.811.898 1.217 2.163 1.217 3.794zm-7.629 0c0 1.23.248 2.165.745 2.803.497.633 1.233.95 2.208.95.971 0 1.702-.314 2.194-.943.497-.63.746-1.566.746-2.81 0-1.226-.247-2.155-.739-2.789-.487-.633-1.217-.95-2.187-.95-.98 0-1.721.317-2.222.95-.497.634-.745 1.563-.745 2.79zM163.221 17V7.006h1.634v8.593h4.232V17h-5.866z" fill="#36B37E"/></svg>